<svg width="9.334229" height="4.665833" viewBox="0 0 9.33423 4.66583" fill="none" xmlns="http://www.w3.org/2000/svg" xmlns:xlink="http://www.w3.org/1999/xlink">
	<desc>
			Created with Pixso.
	</desc>
	<defs/>
	<path id="Vector" d="M9.33 0.77C9.33 0.87 9.31 0.97 9.26 1.06C9.22 1.15 9.16 1.23 9.08 1.29L5.08 4.51C4.96 4.61 4.81 4.66 4.66 4.66C4.5 4.66 4.36 4.61 4.24 4.51L0.24 1.18C0.1 1.06 0.01 0.9 0 0.72C-0.02 0.55 0.04 0.37 0.15 0.24C0.26 0.1 0.42 0.01 0.6 0C0.78 -0.02 0.95 0.04 1.09 0.15L4.66 3.13L8.24 0.25C8.33 0.17 8.45 0.12 8.58 0.1C8.71 0.08 8.83 0.1 8.95 0.16C9.06 0.21 9.16 0.3 9.23 0.41C9.3 0.52 9.33 0.64 9.33 0.77Z" fill="#1F1C4E" fill-opacity="1.000000" fill-rule="nonzero"/>
</svg>
