<svg width="126.000000" height="42.000000" viewBox="0 0 126 42" fill="none" xmlns="http://www.w3.org/2000/svg" xmlns:xlink="http://www.w3.org/1999/xlink">
	<defs>
		<clipPath id="clip2283_310">
			<rect id="Frame" width="126.000008" height="42.000000" fill="white" fill-opacity="0"/>
		</clipPath>
	</defs>
	<rect id="Frame" width="126.000008" height="42.000000" fill="#FFDA00" fill-opacity="0"/>
	<g clip-path="url(#clip2283_310)">
		<path id="Vector" d="M22.91 28.86L29.27 13.35L27.65 13.35L15.48 41.98L0 41.98L16.71 5.66C18.3 2.21 21.72 0.01 25.49 0.01L39.98 0.01L36.52 8.11L37.92 8.11L41.4 0L56.78 0L56.78 41.98L44.45 41.98L44.45 13.33L42.87 13.33L37.16 28.9L22.91 28.86Z" fill="#FFDA00" fill-opacity="1.000000" fill-rule="nonzero"/>
		<path id="Vector" d="M57.72 0.01L84.57 0.01L78.76 13.37L71.14 13.37L71.14 14.54L79.51 14.54L85.98 0.01L100.23 0.01L85.23 35.15C83.46 39.29 79.42 41.97 74.95 41.97C73.78 41.97 72.55 41.97 71.31 41.98C65.76 42.02 57.72 41.98 57.72 41.98L57.72 28.9L73.43 28.9L73.89 27.62L67.97 27.62C62.31 27.62 57.72 22.99 57.72 17.28L57.72 0.01Z" fill="#FFDA00" fill-opacity="1.000000" fill-rule="nonzero"/>
		<path id="Vector" d="M126 0L126 19.7L116.95 19.74L106.46 19.78L107.63 14.56L116.94 14.51L116.94 13.45L107.88 13.45L106.46 19.77L104.02 28.86L116.95 28.86L116.95 27.63L104.34 27.64L105.93 21.71L117.43 21.66L126 21.69L126 41.98L83.4 41.98L98.34 6.62C100.04 2.61 103.95 0 108.28 0C116.39 0 119.47 0 126 0Z" fill="#FFDA00" fill-opacity="1.000000" fill-rule="nonzero"/>
	</g>
</svg>
