<svg width="20.000000" height="14.000000" viewBox="0 0 20 14" fill="none" xmlns="http://www.w3.org/2000/svg" xmlns:xlink="http://www.w3.org/1999/xlink">
	<desc>
			Created with Pixso.
	</desc>
	<defs>
		<clipPath id="clip2283_267">
			<rect id="country 1" width="20.000000" height="14.000000" fill="white" fill-opacity="0"/>
		</clipPath>
	</defs>
	<rect id="country 1" width="20.000000" height="14.000000" fill="#FFFFFF" fill-opacity="0"/>
	<g clip-path="url(#clip2283_267)">
		<path id="Vector" d="M0 0.01L20 0.01L20 13.34L0 13.34L0 0.01Z" fill="#F0F0F0" fill-opacity="1.000000" fill-rule="evenodd"/>
		<path id="Vector" d="M11.25 0.01L8.75 0.01L8.75 5.42L0 5.42L0 7.92L8.75 7.92L8.75 13.34L11.25 13.34L11.25 7.92L20 7.92L20 5.42L11.25 5.42L11.25 0.01Z" fill="#D80027" fill-opacity="1.000000" fill-rule="nonzero"/>
		<path id="Vector" d="M15.38 8.99L20 11.56L20 8.99L15.38 8.99Z" fill="#0052B4" fill-opacity="1.000000" fill-rule="nonzero"/>
		<path id="Vector" d="M12.17 8.99L19.99 13.34L19.99 12.11L14.38 8.99L12.17 8.99Z" fill="#0052B4" fill-opacity="1.000000" fill-rule="nonzero"/>
		<path id="Vector" d="M17.91 13.34L12.17 10.15L12.17 13.34L17.91 13.34Z" fill="#0052B4" fill-opacity="1.000000" fill-rule="nonzero"/>
		<path id="Vector" d="M12.17 8.99L19.99 13.34L19.99 12.11L14.38 8.99L12.17 8.99Z" fill="#F0F0F0" fill-opacity="1.000000" fill-rule="nonzero"/>
		<path id="Vector" d="M12.17 8.99L19.99 13.34L19.99 12.11L14.38 8.99L12.17 8.99Z" fill="#D80027" fill-opacity="1.000000" fill-rule="nonzero"/>
		<path id="Vector" d="M3.52 8.99L0 10.95L0 8.99L3.52 8.99Z" fill="#0052B4" fill-opacity="1.000000" fill-rule="nonzero"/>
		<path id="Vector" d="M7.82 9.55L7.82 13.34L0.99 13.34L7.82 9.55Z" fill="#0052B4" fill-opacity="1.000000" fill-rule="nonzero"/>
		<path id="Vector" d="M5.61 8.99L0 12.11L0 13.34L7.82 8.99L5.61 8.99Z" fill="#D80027" fill-opacity="1.000000" fill-rule="nonzero"/>
		<path id="Vector" d="M4.61 4.36L0 1.79L0 4.36L4.61 4.36Z" fill="#0052B4" fill-opacity="1.000000" fill-rule="nonzero"/>
		<path id="Vector" d="M7.82 4.36L0 0.01L0 1.24L5.61 4.36L7.82 4.36Z" fill="#0052B4" fill-opacity="1.000000" fill-rule="nonzero"/>
		<path id="Vector" d="M2.08 0.01L7.82 3.2L7.82 0.01L2.08 0.01Z" fill="#0052B4" fill-opacity="1.000000" fill-rule="nonzero"/>
		<path id="Vector" d="M7.82 4.36L0 0.01L0 1.24L5.61 4.36L7.82 4.36Z" fill="#F0F0F0" fill-opacity="1.000000" fill-rule="nonzero"/>
		<path id="Vector" d="M7.82 4.36L0 0.01L0 1.24L5.61 4.36L7.82 4.36Z" fill="#D80027" fill-opacity="1.000000" fill-rule="nonzero"/>
		<path id="Vector" d="M16.47 4.36L20 2.4L20 4.36L16.47 4.36Z" fill="#0052B4" fill-opacity="1.000000" fill-rule="nonzero"/>
		<path id="Vector" d="M12.17 3.8L12.17 0.01L19 0.01L12.17 3.8Z" fill="#0052B4" fill-opacity="1.000000" fill-rule="nonzero"/>
		<path id="Vector" d="M14.38 4.36L19.99 1.24L19.99 0.01L12.17 4.36L14.38 4.36Z" fill="#D80027" fill-opacity="1.000000" fill-rule="nonzero"/>
	</g>
</svg>
