<svg width="16.000000" height="16.000000" viewBox="0 0 16 16" fill="none" xmlns="http://www.w3.org/2000/svg" xmlns:xlink="http://www.w3.org/1999/xlink">
	<defs>
		<clipPath id="clip2283_255">
			<rect id="eva:arrow-ios-back-fill" width="15.999998" height="16.000000" transform="translate(0.000000 16.000000) rotate(-90.000000)" fill="white" fill-opacity="0"/>
		</clipPath>
	</defs>
	<rect id="eva:arrow-ios-back-fill" width="15.999998" height="16.000000" transform="translate(0.000000 16.000000) rotate(-90.000000)" fill="#FFFFFF" fill-opacity="0"/>
	<g clip-path="url(#clip2283_255)">
		<path id="Vector" d="M12.66 6.77C12.66 6.87 12.64 6.97 12.6 7.06C12.55 7.15 12.49 7.23 12.42 7.29L8.42 10.52C8.3 10.61 8.15 10.67 7.99 10.67C7.84 10.67 7.69 10.61 7.57 10.52L3.57 7.18C3.43 7.07 3.35 6.91 3.33 6.73C3.31 6.55 3.37 6.38 3.48 6.24C3.59 6.11 3.76 6.02 3.93 6C4.11 5.99 4.29 6.04 4.42 6.15L8 9.13L11.57 6.25C11.67 6.17 11.79 6.12 11.91 6.11C12.04 6.09 12.17 6.11 12.28 6.17C12.4 6.22 12.49 6.31 12.56 6.41C12.63 6.52 12.66 6.65 12.66 6.77Z" fill="#1F1C4E" fill-opacity="1.000000" fill-rule="nonzero"/>
	</g>
</svg>
