<svg width="16.000000" height="16.000000" viewBox="0 0 16 16" fill="none" xmlns="http://www.w3.org/2000/svg" xmlns:xlink="http://www.w3.org/1999/xlink">
	
	<defs>
		<clipPath id="clip2283_300">
			<rect id="brands-and-logotypes 1" width="16.000000" height="16.000000" fill="white" fill-opacity="0"/>
		</clipPath>
	</defs>
	<rect id="brands-and-logotypes 1" width="16.000000" height="16.000000" fill="#FFFFFF" fill-opacity="0"/>
	<g clip-path="url(#clip2283_300)">
		<path id="Vector" d="M15.95 4.69C15.91 3.84 15.77 3.26 15.58 2.75C15.37 2.22 15.06 1.74 14.65 1.34C14.25 0.93 13.77 0.62 13.24 0.42C12.73 0.22 12.15 0.08 11.3 0.04C10.45 0 10.18 0 8.01 0C5.84 0 5.57 0 4.72 0.04C3.87 0.08 3.29 0.22 2.78 0.41C2.24 0.62 1.76 0.93 1.36 1.34C0.96 1.74 0.64 2.22 0.44 2.75C0.25 3.26 0.11 3.84 0.07 4.69C0.03 5.54 0.02 5.81 0.02 7.98C0.02 10.15 0.03 10.42 0.07 11.27C0.11 12.12 0.24 12.7 0.44 13.21C0.64 13.75 0.96 14.23 1.36 14.63C1.76 15.03 2.25 15.35 2.78 15.55C3.29 15.74 3.87 15.88 4.71 15.92C5.57 15.95 5.84 15.96 8.01 15.96C10.17 15.96 10.45 15.95 11.3 15.92C12.15 15.88 12.73 15.74 13.23 15.55C14.31 15.13 15.16 14.28 15.57 13.21C15.77 12.7 15.9 12.12 15.94 11.27C15.98 10.42 15.99 10.15 15.99 7.98C15.99 5.81 15.99 5.54 15.95 4.69ZM14.51 11.21C14.48 11.99 14.34 12.41 14.24 12.69C13.97 13.39 13.42 13.94 12.72 14.21C12.44 14.32 12.01 14.45 11.24 14.48C10.4 14.52 10.14 14.53 8.01 14.53C5.88 14.53 5.63 14.52 4.79 14.48C4.01 14.45 3.59 14.32 3.3 14.21C2.96 14.08 2.64 13.88 2.39 13.61C2.12 13.35 1.92 13.04 1.79 12.69C1.68 12.41 1.55 11.99 1.52 11.21C1.48 10.37 1.47 10.12 1.47 7.99C1.47 5.86 1.48 5.6 1.52 4.76C1.55 3.98 1.68 3.56 1.79 3.28C1.92 2.93 2.12 2.62 2.39 2.36C2.65 2.1 2.96 1.89 3.31 1.77C3.59 1.66 4.01 1.53 4.79 1.49C5.63 1.45 5.88 1.45 8.02 1.45C10.15 1.45 10.4 1.45 11.24 1.49C12.02 1.53 12.44 1.66 12.72 1.77C13.07 1.89 13.38 2.1 13.64 2.36C13.9 2.62 14.11 2.93 14.24 3.28C14.34 3.56 14.48 3.98 14.51 4.76C14.55 5.6 14.56 5.86 14.56 7.99C14.56 10.12 14.55 10.37 14.51 11.21Z" />
		<path id="Vector" d="M8.01 3.88C5.74 3.88 3.91 5.72 3.91 7.98C3.91 10.25 5.74 12.08 8.01 12.08C10.27 12.08 12.11 10.25 12.11 7.98C12.11 5.72 10.27 3.88 8.01 3.88ZM8.01 10.64C6.54 10.64 5.35 9.45 5.35 7.98C5.35 6.51 6.54 5.32 8.01 5.32C9.48 5.32 10.67 6.51 10.67 7.98C10.67 9.45 9.48 10.64 8.01 10.64Z" />
		<path id="Vector" d="M13.23 3.72C13.23 4.25 12.8 4.67 12.27 4.67C11.74 4.67 11.32 4.25 11.32 3.72C11.32 3.19 11.74 2.76 12.27 2.76C12.8 2.76 13.23 3.19 13.23 3.72Z" />
	</g>
</svg>
