<svg width="16.000000" height="11.152100" viewBox="0 0 16 11.1521" fill="none" xmlns="http://www.w3.org/2000/svg" xmlns:xlink="http://www.w3.org/1999/xlink">
	<defs/>
	<path id="Vector" d="M15.72 1.79C15.52 0.94 14.83 0.31 13.99 0.22C12 0 10 -0.01 8 0C6 -0.01 3.99 0 2.01 0.22C1.17 0.31 0.47 0.94 0.28 1.79C0 3 0 4.32 0 5.57C0 6.82 0 8.14 0.27 9.35C0.47 10.2 1.17 10.83 2 10.93C3.99 11.15 6 11.15 7.99 11.15C9.99 11.15 12 11.15 13.99 10.93C14.82 10.83 15.52 10.2 15.72 9.35C15.99 8.14 16 6.82 16 5.57C16 4.32 16 3 15.72 1.79ZM5.93 8.05C5.93 6.28 5.93 4.53 5.93 2.76C7.63 3.65 9.31 4.53 11.02 5.42C9.32 6.3 7.63 7.17 5.93 8.05Z" fill="#707683" fill-opacity="1.000000" fill-rule="nonzero"/>
</svg>
